<svg id="visual" viewBox="0 0 900 450" width="900" height="450" xmlns="http://www.w3.org/2000/svg" xmlns:xlink="http://www.w3.org/1999/xlink" version="1.1"><rect x="0" y="0" width="900" height="450" fill="#030a10"></rect><path d="M0 352L21.5 354.8C43 357.7 86 363.3 128.8 367.7C171.7 372 214.3 375 257.2 377C300 379 343 380 385.8 379.7C428.7 379.3 471.3 377.7 514.2 376.3C557 375 600 374 642.8 374.2C685.7 374.3 728.3 375.7 771.2 375.2C814 374.7 857 372.3 878.5 371.2L900 370L900 451L878.5 451C857 451 814 451 771.2 451C728.3 451 685.7 451 642.8 451C600 451 557 451 514.2 451C471.3 451 428.7 451 385.8 451C343 451 300 451 257.2 451C214.3 451 171.7 451 128.8 451C86 451 43 451 21.5 451L0 451Z" fill="#a66a66"></path><path d="M0 395L21.5 393.7C43 392.3 86 389.7 128.8 389.8C171.7 390 214.3 393 257.2 393.3C300 393.7 343 391.3 385.8 387.5C428.7 383.7 471.3 378.3 514.2 376.8C557 375.3 600 377.7 642.8 377.5C685.7 377.3 728.3 374.7 771.2 373C814 371.3 857 370.7 878.5 370.3L900 370L900 451L878.5 451C857 451 814 451 771.2 451C728.3 451 685.7 451 642.8 451C600 451 557 451 514.2 451C471.3 451 428.7 451 385.8 451C343 451 300 451 257.2 451C214.3 451 171.7 451 128.8 451C86 451 43 451 21.5 451L0 451Z" fill="#af5f5f"></path><path d="M0 405L21.5 402.7C43 400.3 86 395.7 128.8 393.5C171.7 391.3 214.3 391.7 257.2 391.3C300 391 343 390 385.8 391C428.7 392 471.3 395 514.2 395.7C557 396.3 600 394.7 642.8 395.5C685.7 396.3 728.3 399.7 771.2 400.7C814 401.7 857 400.3 878.5 399.7L900 399L900 451L878.5 451C857 451 814 451 771.2 451C728.3 451 685.7 451 642.8 451C600 451 557 451 514.2 451C471.3 451 428.7 451 385.8 451C343 451 300 451 257.2 451C214.3 451 171.7 451 128.8 451C86 451 43 451 21.5 451L0 451Z" fill="#b7525b"></path><path d="M0 413L21.5 413.5C43 414 86 415 128.8 415.5C171.7 416 214.3 416 257.2 416.5C300 417 343 418 385.8 416.7C428.7 415.3 471.3 411.7 514.2 411.3C557 411 600 414 642.8 416C685.7 418 728.3 419 771.2 418.3C814 417.7 857 415.3 878.5 414.2L900 413L900 451L878.5 451C857 451 814 451 771.2 451C728.3 451 685.7 451 642.8 451C600 451 557 451 514.2 451C471.3 451 428.7 451 385.8 451C343 451 300 451 257.2 451C214.3 451 171.7 451 128.8 451C86 451 43 451 21.5 451L0 451Z" fill="#be4358"></path><path d="M0 420L21.5 421.7C43 423.3 86 426.7 128.8 427.5C171.7 428.3 214.3 426.7 257.2 426C300 425.3 343 425.7 385.8 425.3C428.7 425 471.3 424 514.2 424.2C557 424.3 600 425.7 642.8 427.2C685.7 428.7 728.3 430.3 771.2 429.7C814 429 857 426 878.5 424.5L900 423L900 451L878.5 451C857 451 814 451 771.2 451C728.3 451 685.7 451 642.8 451C600 451 557 451 514.2 451C471.3 451 428.7 451 385.8 451C343 451 300 451 257.2 451C214.3 451 171.7 451 128.8 451C86 451 43 451 21.5 451L0 451Z" fill="#c52f57"></path></svg>