<svg id="visual" viewBox="0 0 900 450" width="900" height="450" xmlns="http://www.w3.org/2000/svg" xmlns:xlink="http://www.w3.org/1999/xlink" version="1.1"><rect x="0" y="0" width="900" height="450" fill="#030a10"></rect><path d="M0 373L21.5 371.7C43 370.3 86 367.7 128.8 367C171.7 366.3 214.3 367.7 257.2 365.7C300 363.7 343 358.3 385.8 356.2C428.7 354 471.3 355 514.2 359.5C557 364 600 372 642.8 373.7C685.7 375.3 728.3 370.7 771.2 366.8C814 363 857 360 878.5 358.5L900 357L900 451L878.5 451C857 451 814 451 771.2 451C728.3 451 685.7 451 642.8 451C600 451 557 451 514.2 451C471.3 451 428.7 451 385.8 451C343 451 300 451 257.2 451C214.3 451 171.7 451 128.8 451C86 451 43 451 21.5 451L0 451Z" fill="#a66a66"></path><path d="M0 375L21.5 376.3C43 377.7 86 380.3 128.8 380.7C171.7 381 214.3 379 257.2 377.8C300 376.7 343 376.3 385.8 376.8C428.7 377.3 471.3 378.7 514.2 381.8C557 385 600 390 642.8 390.8C685.7 391.7 728.3 388.3 771.2 385.7C814 383 857 381 878.5 380L900 379L900 451L878.5 451C857 451 814 451 771.2 451C728.3 451 685.7 451 642.8 451C600 451 557 451 514.2 451C471.3 451 428.7 451 385.8 451C343 451 300 451 257.2 451C214.3 451 171.7 451 128.8 451C86 451 43 451 21.5 451L0 451Z" fill="#af5f5f"></path><path d="M0 405L21.5 405.2C43 405.3 86 405.7 128.8 405C171.7 404.3 214.3 402.7 257.2 400.2C300 397.7 343 394.3 385.8 392.2C428.7 390 471.3 389 514.2 390.5C557 392 600 396 642.8 396.3C685.7 396.7 728.3 393.3 771.2 392.7C814 392 857 394 878.5 395L900 396L900 451L878.5 451C857 451 814 451 771.2 451C728.3 451 685.7 451 642.8 451C600 451 557 451 514.2 451C471.3 451 428.7 451 385.8 451C343 451 300 451 257.2 451C214.3 451 171.7 451 128.8 451C86 451 43 451 21.5 451L0 451Z" fill="#b7525b"></path><path d="M0 411L21.5 412.3C43 413.7 86 416.3 128.8 415C171.7 413.7 214.3 408.3 257.2 406.2C300 404 343 405 385.8 405.5C428.7 406 471.3 406 514.2 407.8C557 409.7 600 413.3 642.8 413.2C685.7 413 728.3 409 771.2 408.8C814 408.7 857 412.3 878.5 414.2L900 416L900 451L878.5 451C857 451 814 451 771.2 451C728.3 451 685.7 451 642.8 451C600 451 557 451 514.2 451C471.3 451 428.7 451 385.8 451C343 451 300 451 257.2 451C214.3 451 171.7 451 128.8 451C86 451 43 451 21.5 451L0 451Z" fill="#be4358"></path><path d="M0 430L21.5 429C43 428 86 426 128.8 424.8C171.7 423.7 214.3 423.3 257.2 424.3C300 425.3 343 427.7 385.8 428.8C428.7 430 471.3 430 514.2 429C557 428 600 426 642.8 426C685.7 426 728.3 428 771.2 427.3C814 426.7 857 423.3 878.5 421.7L900 420L900 451L878.5 451C857 451 814 451 771.2 451C728.3 451 685.7 451 642.8 451C600 451 557 451 514.2 451C471.3 451 428.7 451 385.8 451C343 451 300 451 257.2 451C214.3 451 171.7 451 128.8 451C86 451 43 451 21.5 451L0 451Z" fill="#c52f57"></path></svg>