<svg id="visual" viewBox="0 0 900 450" width="900" height="450" xmlns="http://www.w3.org/2000/svg" xmlns:xlink="http://www.w3.org/1999/xlink" version="1.1"><rect x="0" y="0" width="900" height="450" fill="#030a10"></rect><path d="M0 373L21.5 372C43 371 86 369 128.8 369.2C171.7 369.3 214.3 371.7 257.2 373.3C300 375 343 376 385.8 376.2C428.7 376.3 471.3 375.7 514.2 372.8C557 370 600 365 642.8 365.5C685.7 366 728.3 372 771.2 374.5C814 377 857 376 878.5 375.5L900 375L900 451L878.5 451C857 451 814 451 771.2 451C728.3 451 685.7 451 642.8 451C600 451 557 451 514.2 451C471.3 451 428.7 451 385.8 451C343 451 300 451 257.2 451C214.3 451 171.7 451 128.8 451C86 451 43 451 21.5 451L0 451Z" fill="#a66a66"></path><path d="M0 384L21.5 384.7C43 385.3 86 386.7 128.8 387.7C171.7 388.7 214.3 389.3 257.2 386.7C300 384 343 378 385.8 379C428.7 380 471.3 388 514.2 389.2C557 390.3 600 384.7 642.8 380.3C685.7 376 728.3 373 771.2 375.3C814 377.7 857 385.3 878.5 389.2L900 393L900 451L878.5 451C857 451 814 451 771.2 451C728.3 451 685.7 451 642.8 451C600 451 557 451 514.2 451C471.3 451 428.7 451 385.8 451C343 451 300 451 257.2 451C214.3 451 171.7 451 128.8 451C86 451 43 451 21.5 451L0 451Z" fill="#af5f5f"></path><path d="M0 395L21.5 396.2C43 397.3 86 399.7 128.8 398.8C171.7 398 214.3 394 257.2 392.3C300 390.7 343 391.3 385.8 392.2C428.7 393 471.3 394 514.2 393.2C557 392.3 600 389.7 642.8 391.3C685.7 393 728.3 399 771.2 399.8C814 400.7 857 396.3 878.5 394.2L900 392L900 451L878.5 451C857 451 814 451 771.2 451C728.3 451 685.7 451 642.8 451C600 451 557 451 514.2 451C471.3 451 428.7 451 385.8 451C343 451 300 451 257.2 451C214.3 451 171.7 451 128.8 451C86 451 43 451 21.5 451L0 451Z" fill="#b7525b"></path><path d="M0 418L21.5 416.3C43 414.7 86 411.3 128.8 410.3C171.7 409.3 214.3 410.7 257.2 412C300 413.3 343 414.7 385.8 415.2C428.7 415.7 471.3 415.3 514.2 416.2C557 417 600 419 642.8 418.5C685.7 418 728.3 415 771.2 413C814 411 857 410 878.5 409.5L900 409L900 451L878.5 451C857 451 814 451 771.2 451C728.3 451 685.7 451 642.8 451C600 451 557 451 514.2 451C471.3 451 428.7 451 385.8 451C343 451 300 451 257.2 451C214.3 451 171.7 451 128.8 451C86 451 43 451 21.5 451L0 451Z" fill="#be4358"></path><path d="M0 425L21.5 424.8C43 424.7 86 424.3 128.8 424.2C171.7 424 214.3 424 257.2 424.7C300 425.3 343 426.7 385.8 426.7C428.7 426.7 471.3 425.3 514.2 425.5C557 425.7 600 427.3 642.8 426.8C685.7 426.3 728.3 423.7 771.2 423.8C814 424 857 427 878.5 428.5L900 430L900 451L878.5 451C857 451 814 451 771.2 451C728.3 451 685.7 451 642.8 451C600 451 557 451 514.2 451C471.3 451 428.7 451 385.8 451C343 451 300 451 257.2 451C214.3 451 171.7 451 128.8 451C86 451 43 451 21.5 451L0 451Z" fill="#c52f57"></path></svg>