<svg id="visual" viewBox="0 0 900 450" width="900" height="450" xmlns="http://www.w3.org/2000/svg" xmlns:xlink="http://www.w3.org/1999/xlink" version="1.1"><rect x="0" y="0" width="900" height="450" fill="#030a10"></rect><path d="M0 368L21.5 368.3C43 368.7 86 369.3 128.8 371.2C171.7 373 214.3 376 257.2 375.3C300 374.7 343 370.3 385.8 366.5C428.7 362.7 471.3 359.3 514.2 360.8C557 362.3 600 368.7 642.8 371.8C685.7 375 728.3 375 771.2 374C814 373 857 371 878.5 370L900 369L900 451L878.5 451C857 451 814 451 771.2 451C728.3 451 685.7 451 642.8 451C600 451 557 451 514.2 451C471.3 451 428.7 451 385.8 451C343 451 300 451 257.2 451C214.3 451 171.7 451 128.8 451C86 451 43 451 21.5 451L0 451Z" fill="#a66a66"></path><path d="M0 374L21.5 376.3C43 378.7 86 383.3 128.8 382.8C171.7 382.3 214.3 376.7 257.2 374.7C300 372.7 343 374.3 385.8 377.5C428.7 380.7 471.3 385.3 514.2 386.2C557 387 600 384 642.8 383.5C685.7 383 728.3 385 771.2 386.7C814 388.3 857 389.7 878.5 390.3L900 391L900 451L878.5 451C857 451 814 451 771.2 451C728.3 451 685.7 451 642.8 451C600 451 557 451 514.2 451C471.3 451 428.7 451 385.8 451C343 451 300 451 257.2 451C214.3 451 171.7 451 128.8 451C86 451 43 451 21.5 451L0 451Z" fill="#af5f5f"></path><path d="M0 400L21.5 397.7C43 395.3 86 390.7 128.8 391.5C171.7 392.3 214.3 398.7 257.2 401.3C300 404 343 403 385.8 402.3C428.7 401.7 471.3 401.3 514.2 402.2C557 403 600 405 642.8 403C685.7 401 728.3 395 771.2 394C814 393 857 397 878.5 399L900 401L900 451L878.5 451C857 451 814 451 771.2 451C728.3 451 685.7 451 642.8 451C600 451 557 451 514.2 451C471.3 451 428.7 451 385.8 451C343 451 300 451 257.2 451C214.3 451 171.7 451 128.8 451C86 451 43 451 21.5 451L0 451Z" fill="#b7525b"></path><path d="M0 414L21.5 413.5C43 413 86 412 128.8 410.5C171.7 409 214.3 407 257.2 407C300 407 343 409 385.8 409.5C428.7 410 471.3 409 514.2 407.7C557 406.3 600 404.7 642.8 405.7C685.7 406.7 728.3 410.3 771.2 413.2C814 416 857 418 878.5 419L900 420L900 451L878.5 451C857 451 814 451 771.2 451C728.3 451 685.7 451 642.8 451C600 451 557 451 514.2 451C471.3 451 428.7 451 385.8 451C343 451 300 451 257.2 451C214.3 451 171.7 451 128.8 451C86 451 43 451 21.5 451L0 451Z" fill="#be4358"></path><path d="M0 432L21.5 431.2C43 430.3 86 428.7 128.8 428.3C171.7 428 214.3 429 257.2 428.2C300 427.3 343 424.7 385.8 425C428.7 425.3 471.3 428.7 514.2 429.8C557 431 600 430 642.8 429.2C685.7 428.3 728.3 427.7 771.2 426.2C814 424.7 857 422.3 878.5 421.2L900 420L900 451L878.5 451C857 451 814 451 771.2 451C728.3 451 685.7 451 642.8 451C600 451 557 451 514.2 451C471.3 451 428.7 451 385.8 451C343 451 300 451 257.2 451C214.3 451 171.7 451 128.8 451C86 451 43 451 21.5 451L0 451Z" fill="#c52f57"></path></svg>