<svg id="visual" viewBox="0 0 900 450" width="900" height="450" xmlns="http://www.w3.org/2000/svg" xmlns:xlink="http://www.w3.org/1999/xlink" version="1.1"><rect x="0" y="0" width="900" height="450" fill="#030a10"></rect><path d="M0 381L21.5 379C43 377 86 373 128.8 368.8C171.7 364.7 214.3 360.3 257.2 360.5C300 360.7 343 365.3 385.8 365.3C428.7 365.3 471.3 360.7 514.2 360.8C557 361 600 366 642.8 366.7C685.7 367.3 728.3 363.7 771.2 365.8C814 368 857 376 878.5 380L900 384L900 451L878.5 451C857 451 814 451 771.2 451C728.3 451 685.7 451 642.8 451C600 451 557 451 514.2 451C471.3 451 428.7 451 385.8 451C343 451 300 451 257.2 451C214.3 451 171.7 451 128.8 451C86 451 43 451 21.5 451L0 451Z" fill="#a66a66"></path><path d="M0 392L21.5 388.7C43 385.3 86 378.7 128.8 376.2C171.7 373.7 214.3 375.3 257.2 376.7C300 378 343 379 385.8 378C428.7 377 471.3 374 514.2 373.8C557 373.7 600 376.3 642.8 376.2C685.7 376 728.3 373 771.2 372.2C814 371.3 857 372.7 878.5 373.3L900 374L900 451L878.5 451C857 451 814 451 771.2 451C728.3 451 685.7 451 642.8 451C600 451 557 451 514.2 451C471.3 451 428.7 451 385.8 451C343 451 300 451 257.2 451C214.3 451 171.7 451 128.8 451C86 451 43 451 21.5 451L0 451Z" fill="#af5f5f"></path><path d="M0 402L21.5 401.5C43 401 86 400 128.8 400.2C171.7 400.3 214.3 401.7 257.2 399.7C300 397.7 343 392.3 385.8 391.2C428.7 390 471.3 393 514.2 395.8C557 398.7 600 401.3 642.8 403.2C685.7 405 728.3 406 771.2 405.7C814 405.3 857 403.7 878.5 402.8L900 402L900 451L878.5 451C857 451 814 451 771.2 451C728.3 451 685.7 451 642.8 451C600 451 557 451 514.2 451C471.3 451 428.7 451 385.8 451C343 451 300 451 257.2 451C214.3 451 171.7 451 128.8 451C86 451 43 451 21.5 451L0 451Z" fill="#b7525b"></path><path d="M0 409L21.5 410.7C43 412.3 86 415.7 128.8 415C171.7 414.3 214.3 409.7 257.2 408.5C300 407.3 343 409.7 385.8 410.8C428.7 412 471.3 412 514.2 411.5C557 411 600 410 642.8 411.3C685.7 412.7 728.3 416.3 771.2 418.2C814 420 857 420 878.5 420L900 420L900 451L878.5 451C857 451 814 451 771.2 451C728.3 451 685.7 451 642.8 451C600 451 557 451 514.2 451C471.3 451 428.7 451 385.8 451C343 451 300 451 257.2 451C214.3 451 171.7 451 128.8 451C86 451 43 451 21.5 451L0 451Z" fill="#be4358"></path><path d="M0 431L21.5 430.7C43 430.3 86 429.7 128.8 428.7C171.7 427.7 214.3 426.3 257.2 427C300 427.7 343 430.3 385.8 431.5C428.7 432.7 471.3 432.3 514.2 432C557 431.7 600 431.3 642.8 431.3C685.7 431.3 728.3 431.7 771.2 431.7C814 431.7 857 431.3 878.5 431.2L900 431L900 451L878.5 451C857 451 814 451 771.2 451C728.3 451 685.7 451 642.8 451C600 451 557 451 514.2 451C471.3 451 428.7 451 385.8 451C343 451 300 451 257.2 451C214.3 451 171.7 451 128.8 451C86 451 43 451 21.5 451L0 451Z" fill="#c52f57"></path></svg>