<svg id="visual" viewBox="0 0 900 450" width="900" height="450" xmlns="http://www.w3.org/2000/svg" xmlns:xlink="http://www.w3.org/1999/xlink" version="1.1"><rect x="0" y="0" width="900" height="450" fill="#030a10"></rect><path d="M0 383L21.5 380.5C43 378 86 373 128.8 372.7C171.7 372.3 214.3 376.7 257.2 375.7C300 374.7 343 368.3 385.8 366.3C428.7 364.3 471.3 366.7 514.2 366C557 365.3 600 361.7 642.8 361.2C685.7 360.7 728.3 363.3 771.2 366.7C814 370 857 374 878.5 376L900 378L900 451L878.5 451C857 451 814 451 771.2 451C728.3 451 685.7 451 642.8 451C600 451 557 451 514.2 451C471.3 451 428.7 451 385.8 451C343 451 300 451 257.2 451C214.3 451 171.7 451 128.8 451C86 451 43 451 21.5 451L0 451Z" fill="#a66a66"></path><path d="M0 377L21.5 377.3C43 377.7 86 378.3 128.8 377.8C171.7 377.3 214.3 375.7 257.2 375.2C300 374.7 343 375.3 385.8 377.7C428.7 380 471.3 384 514.2 383.5C557 383 600 378 642.8 377.2C685.7 376.3 728.3 379.7 771.2 381C814 382.3 857 381.7 878.5 381.3L900 381L900 451L878.5 451C857 451 814 451 771.2 451C728.3 451 685.7 451 642.8 451C600 451 557 451 514.2 451C471.3 451 428.7 451 385.8 451C343 451 300 451 257.2 451C214.3 451 171.7 451 128.8 451C86 451 43 451 21.5 451L0 451Z" fill="#af5f5f"></path><path d="M0 403L21.5 402.7C43 402.3 86 401.7 128.8 401.5C171.7 401.3 214.3 401.7 257.2 403C300 404.3 343 406.7 385.8 404.7C428.7 402.7 471.3 396.3 514.2 395.3C557 394.3 600 398.7 642.8 400.7C685.7 402.7 728.3 402.3 771.2 402.7C814 403 857 404 878.5 404.5L900 405L900 451L878.5 451C857 451 814 451 771.2 451C728.3 451 685.7 451 642.8 451C600 451 557 451 514.2 451C471.3 451 428.7 451 385.8 451C343 451 300 451 257.2 451C214.3 451 171.7 451 128.8 451C86 451 43 451 21.5 451L0 451Z" fill="#b7525b"></path><path d="M0 410L21.5 409.7C43 409.3 86 408.7 128.8 409C171.7 409.3 214.3 410.7 257.2 410.5C300 410.3 343 408.7 385.8 409.2C428.7 409.7 471.3 412.3 514.2 414.5C557 416.7 600 418.3 642.8 416.7C685.7 415 728.3 410 771.2 407.5C814 405 857 405 878.5 405L900 405L900 451L878.5 451C857 451 814 451 771.2 451C728.3 451 685.7 451 642.8 451C600 451 557 451 514.2 451C471.3 451 428.7 451 385.8 451C343 451 300 451 257.2 451C214.3 451 171.7 451 128.8 451C86 451 43 451 21.5 451L0 451Z" fill="#be4358"></path><path d="M0 423L21.5 424.5C43 426 86 429 128.8 429.3C171.7 429.7 214.3 427.3 257.2 426.5C300 425.7 343 426.3 385.8 426.3C428.7 426.3 471.3 425.7 514.2 426.2C557 426.7 600 428.3 642.8 429.7C685.7 431 728.3 432 771.2 431.5C814 431 857 429 878.5 428L900 427L900 451L878.5 451C857 451 814 451 771.2 451C728.3 451 685.7 451 642.8 451C600 451 557 451 514.2 451C471.3 451 428.7 451 385.8 451C343 451 300 451 257.2 451C214.3 451 171.7 451 128.8 451C86 451 43 451 21.5 451L0 451Z" fill="#c52f57"></path></svg>