<svg id="visual" viewBox="0 0 900 450" width="900" height="450" xmlns="http://www.w3.org/2000/svg" xmlns:xlink="http://www.w3.org/1999/xlink" version="1.1"><rect x="0" y="0" width="900" height="450" fill="#030a10"></rect><path d="M0 369L21.5 369.3C43 369.7 86 370.3 128.8 369.7C171.7 369 214.3 367 257.2 365.2C300 363.3 343 361.7 385.8 363.7C428.7 365.7 471.3 371.3 514.2 374.5C557 377.7 600 378.3 642.8 379.2C685.7 380 728.3 381 771.2 376.8C814 372.7 857 363.3 878.5 358.7L900 354L900 451L878.5 451C857 451 814 451 771.2 451C728.3 451 685.7 451 642.8 451C600 451 557 451 514.2 451C471.3 451 428.7 451 385.8 451C343 451 300 451 257.2 451C214.3 451 171.7 451 128.8 451C86 451 43 451 21.5 451L0 451Z" fill="#a66a66"></path><path d="M0 372L21.5 372C43 372 86 372 128.8 374.3C171.7 376.7 214.3 381.3 257.2 384.3C300 387.3 343 388.7 385.8 390.3C428.7 392 471.3 394 514.2 395C557 396 600 396 642.8 393C685.7 390 728.3 384 771.2 380.8C814 377.7 857 377.3 878.5 377.2L900 377L900 451L878.5 451C857 451 814 451 771.2 451C728.3 451 685.7 451 642.8 451C600 451 557 451 514.2 451C471.3 451 428.7 451 385.8 451C343 451 300 451 257.2 451C214.3 451 171.7 451 128.8 451C86 451 43 451 21.5 451L0 451Z" fill="#af5f5f"></path><path d="M0 394L21.5 395.5C43 397 86 400 128.8 399.2C171.7 398.3 214.3 393.7 257.2 391.2C300 388.7 343 388.3 385.8 389.7C428.7 391 471.3 394 514.2 396C557 398 600 399 642.8 400.8C685.7 402.7 728.3 405.3 771.2 405.2C814 405 857 402 878.5 400.5L900 399L900 451L878.5 451C857 451 814 451 771.2 451C728.3 451 685.7 451 642.8 451C600 451 557 451 514.2 451C471.3 451 428.7 451 385.8 451C343 451 300 451 257.2 451C214.3 451 171.7 451 128.8 451C86 451 43 451 21.5 451L0 451Z" fill="#b7525b"></path><path d="M0 412L21.5 410.5C43 409 86 406 128.8 405.5C171.7 405 214.3 407 257.2 409.7C300 412.3 343 415.7 385.8 415.8C428.7 416 471.3 413 514.2 412.8C557 412.7 600 415.3 642.8 414.8C685.7 414.3 728.3 410.7 771.2 408.5C814 406.3 857 405.7 878.5 405.3L900 405L900 451L878.5 451C857 451 814 451 771.2 451C728.3 451 685.7 451 642.8 451C600 451 557 451 514.2 451C471.3 451 428.7 451 385.8 451C343 451 300 451 257.2 451C214.3 451 171.7 451 128.8 451C86 451 43 451 21.5 451L0 451Z" fill="#be4358"></path><path d="M0 423L21.5 424.5C43 426 86 429 128.8 430C171.7 431 214.3 430 257.2 428.5C300 427 343 425 385.8 424.2C428.7 423.3 471.3 423.7 514.2 423.5C557 423.3 600 422.7 642.8 422.3C685.7 422 728.3 422 771.2 423.2C814 424.3 857 426.7 878.5 427.8L900 429L900 451L878.5 451C857 451 814 451 771.2 451C728.3 451 685.7 451 642.8 451C600 451 557 451 514.2 451C471.3 451 428.7 451 385.8 451C343 451 300 451 257.2 451C214.3 451 171.7 451 128.8 451C86 451 43 451 21.5 451L0 451Z" fill="#c52f57"></path></svg>