<svg id="visual" viewBox="0 0 900 450" width="900" height="450" xmlns="http://www.w3.org/2000/svg" xmlns:xlink="http://www.w3.org/1999/xlink" version="1.1">
<g id="waveBackground">
<rect x="0" y="0" width="900" height="450" fill="#030a10"></rect>
<path id="Layer1" d="M0 379L21.5 376.3C43 373.7 86 368.3 128.8 368.7C171.7 369 214.3 375 257.2 374C300 373 343 365 385.8 364C428.7 363 471.3 369 514.2 369.7C557 370.3 600 365.7 642.8 366.7C685.7 367.7 728.3 374.3 771.2 374.3C814 374.3 857 367.7 878.5 364.3L900 361L900 451L878.5 451C857 451 814 451 771.2 451C728.3 451 685.7 451 642.8 451C600 451 557 451 514.2 451C471.3 451 428.7 451 385.8 451C343 451 300 451 257.2 451C214.3 451 171.7 451 128.8 451C86 451 43 451 21.5 451L0 451Z" fill="#a66a66"></path>
<path id="Layer2"d="M0 378L21.5 376.8C43 375.7 86 373.3 128.8 375.7C171.7 378 214.3 385 257.2 387.2C300 389.3 343 386.7 385.8 383C428.7 379.3 471.3 374.7 514.2 372.2C557 369.7 600 369.3 642.8 372.8C685.7 376.3 728.3 383.7 771.2 384.3C814 385 857 379 878.5 376L900 373L900 451L878.5 451C857 451 814 451 771.2 451C728.3 451 685.7 451 642.8 451C600 451 557 451 514.2 451C471.3 451 428.7 451 385.8 451C343 451 300 451 257.2 451C214.3 451 171.7 451 128.8 451C86 451 43 451 21.5 451L0 451Z" fill="#af5f5f"></path>
<path id="Layer3"d="M0 391L21.5 392.8C43 394.7 86 398.3 128.8 399.8C171.7 401.3 214.3 400.7 257.2 401.7C300 402.7 343 405.3 385.8 406.7C428.7 408 471.3 408 514.2 404.5C557 401 600 394 642.8 391.7C685.7 389.3 728.3 391.7 771.2 395.2C814 398.7 857 403.3 878.5 405.7L900 408L900 451L878.5 451C857 451 814 451 771.2 451C728.3 451 685.7 451 642.8 451C600 451 557 451 514.2 451C471.3 451 428.7 451 385.8 451C343 451 300 451 257.2 451C214.3 451 171.7 451 128.8 451C86 451 43 451 21.5 451L0 451Z" fill="#b7525b"></path>
<path id="Layer4"d="M0 416L21.5 416.3C43 416.7 86 417.3 128.8 416.8C171.7 416.3 214.3 414.7 257.2 414.5C300 414.3 343 415.7 385.8 415.7C428.7 415.7 471.3 414.3 514.2 414.5C557 414.7 600 416.3 642.8 415.7C685.7 415 728.3 412 771.2 412.2C814 412.3 857 415.7 878.5 417.3L900 419L900 451L878.5 451C857 451 814 451 771.2 451C728.3 451 685.7 451 642.8 451C600 451 557 451 514.2 451C471.3 451 428.7 451 385.8 451C343 451 300 451 257.2 451C214.3 451 171.7 451 128.8 451C86 451 43 451 21.5 451L0 451Z" fill="#be4358"></path>
<path id="Layer5" d="M0 433L21.5 432.8C43 432.7 86 432.3 128.8 430.8C171.7 429.3 214.3 426.7 257.2 425.7C300 424.7 343 425.3 385.8 426.3C428.7 427.3 471.3 428.7 514.2 428.8C557 429 600 428 642.8 428.3C685.7 428.7 728.3 430.3 771.2 430C814 429.7 857 427.3 878.5 426.2L900 425L900 451L878.5 451C857 451 814 451 771.2 451C728.3 451 685.7 451 642.8 451C600 451 557 451 514.2 451C471.3 451 428.7 451 385.8 451C343 451 300 451 257.2 451C214.3 451 171.7 451 128.8 451C86 451 43 451 21.5 451L0 451Z" fill="#c52f57"></path>
</g>
</svg>
