<svg id="visual" viewBox="0 0 900 450" width="900" height="450" xmlns="http://www.w3.org/2000/svg" xmlns:xlink="http://www.w3.org/1999/xlink" version="1.1"><rect x="0" y="0" width="900" height="450" fill="#030a10"></rect><path d="M0 368L21.5 369.2C43 370.3 86 372.7 128.8 372.3C171.7 372 214.3 369 257.2 368.3C300 367.7 343 369.3 385.8 371C428.7 372.7 471.3 374.3 514.2 375.8C557 377.3 600 378.7 642.8 375.3C685.7 372 728.3 364 771.2 362C814 360 857 364 878.5 366L900 368L900 451L878.5 451C857 451 814 451 771.2 451C728.3 451 685.7 451 642.8 451C600 451 557 451 514.2 451C471.3 451 428.7 451 385.8 451C343 451 300 451 257.2 451C214.3 451 171.7 451 128.8 451C86 451 43 451 21.5 451L0 451Z" fill="#a66a66"></path><path d="M0 381L21.5 381.8C43 382.7 86 384.3 128.8 385.8C171.7 387.3 214.3 388.7 257.2 389.5C300 390.3 343 390.7 385.8 388.2C428.7 385.7 471.3 380.3 514.2 377.7C557 375 600 375 642.8 374.5C685.7 374 728.3 373 771.2 373.8C814 374.7 857 377.3 878.5 378.7L900 380L900 451L878.5 451C857 451 814 451 771.2 451C728.3 451 685.7 451 642.8 451C600 451 557 451 514.2 451C471.3 451 428.7 451 385.8 451C343 451 300 451 257.2 451C214.3 451 171.7 451 128.8 451C86 451 43 451 21.5 451L0 451Z" fill="#af5f5f"></path><path d="M0 402L21.5 402.2C43 402.3 86 402.7 128.8 401.5C171.7 400.3 214.3 397.7 257.2 397.7C300 397.7 343 400.3 385.8 402C428.7 403.7 471.3 404.3 514.2 405.2C557 406 600 407 642.8 404.3C685.7 401.7 728.3 395.3 771.2 395.2C814 395 857 401 878.5 404L900 407L900 451L878.5 451C857 451 814 451 771.2 451C728.3 451 685.7 451 642.8 451C600 451 557 451 514.2 451C471.3 451 428.7 451 385.8 451C343 451 300 451 257.2 451C214.3 451 171.7 451 128.8 451C86 451 43 451 21.5 451L0 451Z" fill="#b7525b"></path><path d="M0 418L21.5 418C43 418 86 418 128.8 415.7C171.7 413.3 214.3 408.7 257.2 408.7C300 408.7 343 413.3 385.8 415.8C428.7 418.3 471.3 418.7 514.2 418.2C557 417.7 600 416.3 642.8 415.3C685.7 414.3 728.3 413.7 771.2 412.3C814 411 857 409 878.5 408L900 407L900 451L878.5 451C857 451 814 451 771.2 451C728.3 451 685.7 451 642.8 451C600 451 557 451 514.2 451C471.3 451 428.7 451 385.8 451C343 451 300 451 257.2 451C214.3 451 171.7 451 128.8 451C86 451 43 451 21.5 451L0 451Z" fill="#be4358"></path><path d="M0 426L21.5 425.7C43 425.3 86 424.7 128.8 424C171.7 423.3 214.3 422.7 257.2 424.2C300 425.7 343 429.3 385.8 429.7C428.7 430 471.3 427 514.2 426.8C557 426.7 600 429.3 642.8 429.8C685.7 430.3 728.3 428.7 771.2 428.2C814 427.7 857 428.3 878.5 428.7L900 429L900 451L878.5 451C857 451 814 451 771.2 451C728.3 451 685.7 451 642.8 451C600 451 557 451 514.2 451C471.3 451 428.7 451 385.8 451C343 451 300 451 257.2 451C214.3 451 171.7 451 128.8 451C86 451 43 451 21.5 451L0 451Z" fill="#c52f57"></path></svg>